# xmcd
#
# Track frame offsets: 
#        150
#        22122
#        38305
#        67607
#        86982
#        114822
#        153297
#        196797
#
# Disc length: 3220 seconds
#
# Revision: 0
# Processed by: cddbd v1.5.2PL0 Copyright (c) Steve Scherf et al.
# Submitted via: ExactAudioCopy v0.95b4
#
DISCID=500c9208
DTITLE=Eric Clapton - 1997-10-27 - On Guitar and Vocals-ME! - Part5 - 
DTITLE=CD1
DYEAR=1997
DGENRE=Blues
TTITLE0=Wonderful Tonight
TTITLE1=Tore Down
TTITLE2=Have You Ever Loved A Woman
TTITLE3=Cocaine
TTITLE4=Tearing Us Apart
TTITLE5=Old Love
TTITLE6=Sunshine of Your Love
TTITLE7=Everyday I Have The Blues
EXTD=
EXTT0=
EXTT1=
EXTT2=
EXTT3=
EXTT4=
EXTT5=
EXTT6=
EXTT7=
PLAYORDER=
